<svg xmlns="http://www.w3.org/2000/svg" viewBox="0 0 123 123"><defs><style>.cls-1{fill:#fff;}.cls-2{fill:none;stroke:#4c0bd9;stroke-miterlimit:10;}</style></defs><title>dessin-petit</title><g id="Calque_2" data-name="Calque 2"><g id="contenu_service_illustration" data-name="contenu service illustration"><circle class="cls-1" cx="61.5" cy="61.5" r="61.5"/><path class="cls-2" d="M60.07,69.59a.29.29,0,0,1-.21-.09l-1.69-1.69a.29.29,0,0,1,0-.41L77.94,47.64a.29.29,0,0,1,.21-.09h0a.29.29,0,0,1,.21.09L80,49.33a.29.29,0,0,1,0,.41L60.28,69.5A.29.29,0,0,1,60.07,69.59Zm-1.28-2,1.28,1.28L79.42,49.54l-1.27-1.27Z"/><path class="cls-2" d="M56,65.49a.29.29,0,0,1-.21-.09l-1.69-1.69a.29.29,0,0,1,0-.41L73.85,43.54a.29.29,0,0,1,.21-.09h0a.29.29,0,0,1,.21.09l1.69,1.69a.29.29,0,0,1,0,.41L56.19,65.41A.29.29,0,0,1,56,65.49Zm-1.28-2L56,64.79,75.33,45.44l-1.27-1.28Z"/><path class="cls-2" d="M79.84,49.83a.29.29,0,0,1-.21-.09L73.85,44a.29.29,0,0,1,0-.41l3.67-3.68a1.13,1.13,0,0,1,1.55,0l4.65,4.64a1.11,1.11,0,0,1,0,1.56L80,49.74A.29.29,0,0,1,79.84,49.83Zm-5.37-6.08,5.37,5.37,3.47-3.47a.52.52,0,0,0,0-.73l-4.64-4.64a.53.53,0,0,0-.73,0Z"/><path class="cls-2" d="M60.28,69.09a.29.29,0,0,1-.08.47L48.82,75.15a.29.29,0,0,1-.34-.06.29.29,0,0,1-.06-.34L54,63.38a.29.29,0,0,1,.21-.16.29.29,0,0,1,.26.08m-.12.7-5,10.24,10.25-5Z"/><polygon class="cls-2" points="48.82 74.59 41 77.16 58.26 78.95 43.62 83.45 60.95 79.56 62.24 79.24 63.14 79.05 44.23 76.86 50.25 74.71 48.82 74.59"/><circle class="cls-2" cx="62.52" cy="61.4" r="40.48"/></g></g></svg>