<svg xmlns="http://www.w3.org/2000/svg" viewBox="0 0 123 123"><defs><style>.cls-1{fill:#fff;}.cls-2,.cls-3{fill:none;stroke:#4c0bd9;stroke-miterlimit:10;stroke-width:2px;}.cls-3{stroke-dasharray:2.41 0.96 2.41 0.96 2.41;}</style></defs><title>print-petit</title><g id="Calque_2" data-name="Calque 2"><g id="service_webdesign_et_print" data-name="service webdesign et print"><circle class="cls-1" cx="61.5" cy="61.5" r="61.5"/><path class="cls-2" d="M77.09,36H73.91a3,3,0,0,1,3,3V82.13a3,3,0,0,1-3,3h3.18a3,3,0,0,0,3-3V39A3,3,0,0,0,77.09,36Z"/><path class="cls-2" d="M76.72,82.13V39a3,3,0,0,0-3-3H71.3a2.45,2.45,0,0,1,2.44,2.44V82.7a2.45,2.45,0,0,1-2.44,2.44h2.41A3,3,0,0,0,76.72,82.13Z"/><path class="cls-2" d="M70.38,82.13V39a3,3,0,0,0-3-3H43.91a2.45,2.45,0,0,0-2.44,2.44V82.7a2.45,2.45,0,0,0,2.44,2.44H67.37A3,3,0,0,0,70.38,82.13Z"/><rect class="cls-2" x="57.86" y="54.94" width="10.52" height="10.52" rx="3.18" ry="3.18"/><rect class="cls-2" x="68.38" y="57.31" width="11.72" height="5.78"/><rect class="cls-3" x="44.14" y="39.25" width="24.24" height="42.37"/><circle class="cls-2" cx="63.12" cy="60.2" r="2.53"/><circle class="cls-2" cx="61.76" cy="60.58" r="41.24"/></g></g></svg>