<svg xmlns="http://www.w3.org/2000/svg" viewBox="0 0 123 123"><defs><style>.cls-1{fill:#fff;}.cls-2,.cls-3{fill:none;stroke:#4c0bd9;stroke-miterlimit:10;}.cls-3{stroke-width:2px;}</style></defs><title>webdesign-petit</title><g id="Calque_2" data-name="Calque 2"><g id="service_webdesign_et_print" data-name="service webdesign et print"><circle class="cls-1" cx="61.5" cy="61.5" r="61.5"/><path class="cls-2" d="M63.1,68.18c-.42-.1-.68.16-.58.58l1.47,6c.1.42.44.51.74.21l4.61-4.61c.31-.31.21-.64-.21-.74Z"/><rect class="cls-2" x="67.21" y="71.68" width="2.05" height="4.43" rx="0.59" ry="0.59" transform="translate(168.74 77.88) rotate(135)"/><rect class="cls-3" x="35.5" y="43.12" width="52.04" height="38.5" rx="3.64" ry="3.64"/><rect class="cls-2" x="44.76" y="51.46" width="32.39" height="22.67"/><circle class="cls-2" cx="40.04" cy="46.86" r="1.76"/><circle class="cls-2" cx="44.76" cy="46.86" r="1.76"/><circle class="cls-2" cx="49.41" cy="46.86" r="1.76"/><rect class="cls-2" x="47.64" y="53.81" width="12.5" height="2.78"/><rect class="cls-2" x="63.88" y="58.67" width="15.13" height="5.53" transform="translate(132.88 -10.01) rotate(90)"/><line class="cls-2" x1="47.64" y1="59.21" x2="60.15" y2="59.21"/><line class="cls-2" x1="47.64" y1="61.06" x2="60.15" y2="61.06"/><line class="cls-2" x1="47.64" y1="62.9" x2="60.15" y2="62.9"/><line class="cls-2" x1="47.64" y1="64.75" x2="60.15" y2="64.75"/><line class="cls-2" x1="47.64" y1="66.59" x2="60.15" y2="66.59"/><line class="cls-2" x1="47.64" y1="68.44" x2="60.15" y2="68.44"/><circle class="cls-3" cx="61.52" cy="61" r="41.48"/></g></g></svg>